<svg width="17" height="16" viewBox="0 0 17 16" fill="none" xmlns="http://www.w3.org/2000/svg">
<path d="M11.6904 0.149597C14.3149 0.149598 16.4502 2.28558 16.4502 4.91034C16.4499 6.2428 16.0186 7.61783 15.1797 8.9953C14.5159 10.0852 13.5946 11.1816 12.4443 12.2551C10.4941 14.0751 8.51596 15.2286 8.49219 15.2424C8.43267 15.2768 8.36611 15.2941 8.2998 15.2941C8.23347 15.2941 8.16693 15.2768 8.10742 15.2424C8.10214 15.2398 8.09324 15.2356 8.08301 15.2307C8.06179 15.2204 8.03106 15.2053 7.99219 15.1857C7.91454 15.1467 7.80337 15.0893 7.66406 15.0119C7.38504 14.857 6.99232 14.6226 6.5293 14.3C5.60343 13.6548 4.39232 12.6542 3.2334 11.2238C3.10017 11.0589 3.12622 10.8173 3.29102 10.6838C3.45587 10.5504 3.69742 10.5755 3.83105 10.7404C5.72899 13.083 7.60932 14.0579 8.2959 14.4601C8.82754 14.1318 10.3874 13.1245 11.9268 11.6867C12.7881 10.8821 13.7288 9.85999 14.4531 8.70038C15.1777 7.54037 15.6803 6.25133 15.6807 4.91034C15.6807 2.70976 13.8907 0.919129 11.6904 0.919128C10.4869 0.919128 9.35996 1.45406 8.59766 2.38788C8.52464 2.47732 8.41517 2.52948 8.2998 2.52948C8.18439 2.52948 8.07497 2.47728 8.00195 2.38788C7.23964 1.45409 6.11272 0.919129 4.90918 0.919128C2.70887 0.919128 0.918945 2.70905 0.918945 4.90936C0.918945 6.28055 1.43882 7.72799 2.48145 9.21307C2.6033 9.38674 2.56121 9.62623 2.3877 9.74823C2.21398 9.87023 1.97454 9.82823 1.85254 9.65448C0.728312 8.0532 0.149414 6.45636 0.149414 4.90936C0.149414 2.28486 2.28471 0.149597 4.90918 0.149597C6.19524 0.149597 7.40766 0.663784 8.2998 1.57147C9.19195 0.663813 10.4044 0.149597 11.6904 0.149597Z" fill="white" stroke="white" stroke-width="0.3"/>
</svg>
