<svg width="11" height="15" viewBox="0 0 11 15" fill="none" xmlns="http://www.w3.org/2000/svg">
<path d="M7.44486 14.395C7.12269 14.4005 6.80112 14.3653 6.48777 14.2902C3.3605 13.4262 -0.747141 6.17969 0.116859 3.05533C0.510116 1.94828 1.26423 1.00564 2.25795 0.378966C2.44995 0.265512 2.64486 0.163694 2.83977 0.0706027C3.01865 -0.0108375 3.22156 -0.0222554 3.40844 0.0386033C3.59533 0.099462 3.7526 0.228174 3.84922 0.39933L5.49286 3.30842C5.54743 3.40372 5.58133 3.50944 5.59235 3.6187C5.60338 3.72796 5.59129 3.83832 5.55686 3.9426C5.52179 4.04712 5.46542 4.14322 5.39131 4.22484C5.3172 4.30646 5.22697 4.37182 5.12631 4.41678C4.96631 4.4866 4.80922 4.55933 4.65795 4.63787C3.99759 4.96951 3.61941 5.26915 3.53213 5.53097C3.3314 6.15351 3.56995 7.2066 4.14013 8.21315C4.71031 9.21969 5.47831 9.9586 6.12122 10.0953C6.31031 10.139 6.70304 10.0953 7.46522 9.59206C7.61068 9.50187 7.75613 9.40296 7.89868 9.30115C7.98825 9.23763 8.09014 9.19361 8.19778 9.17191C8.30542 9.15021 8.41641 9.15132 8.52359 9.17517C8.63077 9.19902 8.73177 9.24508 8.82005 9.31037C8.90833 9.37566 8.98194 9.45874 9.03613 9.55424L10.6827 12.4633C10.781 12.6344 10.8114 12.8362 10.7677 13.0286C10.7241 13.2211 10.6096 13.39 10.447 13.5019C10.2696 13.6182 10.0805 13.7346 9.88268 13.8422C9.12661 14.2206 8.29017 14.4102 7.44486 14.395ZM3.16268 0.43133C3.11442 0.432229 3.06687 0.443125 3.02304 0.46333C2.84268 0.547693 2.6594 0.646603 2.47904 0.754239C1.58358 1.32371 0.90063 2.17228 0.535768 3.16878C0.169223 4.49824 0.812132 6.90987 2.17359 9.30987C3.53504 11.7099 5.27468 13.5019 6.60413 13.8713C7.64544 14.0712 8.72356 13.924 9.67322 13.4524C9.85941 13.3506 10.0369 13.243 10.2027 13.1324C10.2739 13.0823 10.3239 13.0074 10.3427 12.9223C10.3616 12.8373 10.3479 12.7483 10.3045 12.6728L8.65795 9.76369C8.63385 9.72141 8.60124 9.68458 8.56218 9.65554C8.52313 9.6265 8.47847 9.60587 8.43104 9.59496C8.3812 9.58348 8.32948 9.58274 8.27933 9.59277C8.22917 9.6028 8.18173 9.62338 8.14013 9.65315C7.99177 9.75787 7.84922 9.85969 7.69213 9.94405C6.95322 10.4211 6.42086 10.5986 6.0165 10.5084C5.24559 10.3339 4.39904 9.55133 3.75322 8.41387C3.24995 7.54115 2.8194 6.27278 3.11031 5.3826C3.2354 4.99569 3.66304 4.62915 4.45141 4.21897C4.6085 4.13751 4.77431 4.06187 4.94013 3.98915C4.98547 3.96905 5.02618 3.93982 5.05972 3.90328C5.09326 3.86674 5.1189 3.82368 5.13504 3.77678C5.15113 3.72901 5.15686 3.67836 5.15184 3.62819C5.14683 3.57803 5.13118 3.52952 5.10595 3.48587L3.4594 0.576784C3.42531 0.530641 3.38045 0.493532 3.32873 0.468687C3.27701 0.443843 3.22001 0.432017 3.16268 0.434239V0.43133Z" fill="#8C3213"/>
</svg>
