<svg width="16" height="16" viewBox="0 0 16 16" fill="none" xmlns="http://www.w3.org/2000/svg">
<path d="M15.9077 2.87206C15.8161 2.7408 15.6687 2.65966 15.5086 2.65282L5.58366 2.22501C5.29889 2.21255 5.06093 2.4324 5.04875 2.71584C5.03665 2.99917 5.25614 3.23857 5.53955 3.25075L14.7926 3.64963L12.9732 9.32609H4.87696L3.41425 1.36173C3.38209 1.18718 3.26225 1.04156 3.09697 0.976711L0.701302 0.0355518C0.437269 -0.06782 0.139327 0.0618692 0.0356332 0.32558C-0.0678819 0.589434 0.0617715 0.887554 0.325661 0.991248L2.45579 1.82807L3.94432 9.93221C3.98918 10.1758 4.20151 10.3528 4.44933 10.3528H4.69624L4.13241 11.9189C4.08522 12.0501 4.10466 12.1958 4.18497 12.3098C4.26518 12.4238 4.39562 12.4916 4.53487 12.4916H4.93034C4.68529 12.7644 4.53487 13.1235 4.53487 13.5184C4.53487 14.3676 5.22589 15.0584 6.07495 15.0584C6.92402 15.0584 7.61504 14.3676 7.61504 13.5184C7.61504 13.1235 7.46462 12.7644 7.2196 12.4916H10.5774C10.3322 12.7644 10.1818 13.1235 10.1818 13.5184C10.1818 14.3676 10.8727 15.0584 11.7219 15.0584C12.5712 15.0584 13.262 14.3676 13.262 13.5184C13.262 13.1235 13.1116 12.7644 12.8666 12.4916H13.3476C13.5839 12.4916 13.7754 12.3001 13.7754 12.0638C13.7754 11.8275 13.5839 11.636 13.3476 11.636H5.14357L5.60554 10.3526H13.3475C13.5708 10.3526 13.7683 10.2084 13.8363 9.99602L15.9753 3.32225C16.0245 3.16993 15.9993 3.0034 15.9077 2.87206ZM6.07499 14.203C5.69749 14.203 5.39049 13.896 5.39049 13.5185C5.39049 13.141 5.69749 12.834 6.07499 12.834C6.45249 12.834 6.75945 13.141 6.75945 13.5185C6.75945 13.896 6.45249 14.203 6.07499 14.203ZM11.7219 14.203C11.3444 14.203 11.0374 13.896 11.0374 13.5185C11.0374 13.141 11.3444 12.834 11.7219 12.834C12.0994 12.834 12.4064 13.141 12.4064 13.5185C12.4064 13.896 12.0994 14.203 11.7219 14.203Z" fill="#8C3213"/>
</svg>
